<mxfile host="app.diagrams.net" modified="2024-07-24T12:49:52.055Z" agent="Mozilla/5.0 (Windows NT 10.0; Win64; x64) AppleWebKit/537.36 (KHTML, like Gecko) Chrome/126.0.0.0 Safari/537.36" etag="0yrHCoSa6M7vgP8F8RYK" version="24.7.2" type="github">
  <diagram name="Page-1" id="2YBvvXClWsGukQMizWep">
    <mxGraphModel dx="989" dy="514" grid="1" gridSize="10" guides="1" tooltips="1" connect="1" arrows="1" fold="1" page="1" pageScale="1" pageWidth="850" pageHeight="1100" math="0" shadow="0">
      <root>
        <mxCell id="0" />
        <mxCell id="1" parent="0" />
        <mxCell id="Ny1s5l3Yp3x04IaPuxIG-1" value="&lt;br&gt;DataBase&lt;br&gt;id_nota&lt;br&gt;conteudo_nota&lt;br&gt;&lt;br&gt;&lt;div&gt;&lt;br&gt;&lt;/div&gt;" style="shape=datastore;whiteSpace=wrap;html=1;" vertex="1" parent="1">
          <mxGeometry x="300" y="320" width="80" height="80" as="geometry" />
        </mxCell>
        <mxCell id="Ny1s5l3Yp3x04IaPuxIG-3" style="edgeStyle=orthogonalEdgeStyle;rounded=0;orthogonalLoop=1;jettySize=auto;html=1;" edge="1" parent="1" source="Ny1s5l3Yp3x04IaPuxIG-2" target="Ny1s5l3Yp3x04IaPuxIG-1">
          <mxGeometry relative="1" as="geometry" />
        </mxCell>
        <mxCell id="Ny1s5l3Yp3x04IaPuxIG-4" value="" style="edgeStyle=orthogonalEdgeStyle;rounded=0;orthogonalLoop=1;jettySize=auto;html=1;" edge="1" parent="1" source="Ny1s5l3Yp3x04IaPuxIG-2" target="Ny1s5l3Yp3x04IaPuxIG-1">
          <mxGeometry relative="1" as="geometry" />
        </mxCell>
        <mxCell id="Ny1s5l3Yp3x04IaPuxIG-2" value="CRUD&lt;div&gt;&lt;br&gt;&lt;/div&gt;" style="sketch=0;pointerEvents=1;shadow=0;dashed=0;html=1;strokeColor=none;labelPosition=center;verticalLabelPosition=bottom;verticalAlign=top;align=center;fillColor=#515151;shape=mxgraph.mscae.enterprise.database_server" vertex="1" parent="1">
          <mxGeometry x="285.5" y="190" width="109" height="90" as="geometry" />
        </mxCell>
        <mxCell id="Ny1s5l3Yp3x04IaPuxIG-5" value="&lt;div&gt;&lt;br&gt;&lt;/div&gt;&lt;div&gt;&lt;br&gt;&lt;/div&gt;" style="text;html=1;align=center;verticalAlign=middle;resizable=0;points=[];autosize=1;strokeColor=none;fillColor=none;" vertex="1" parent="1">
          <mxGeometry x="310" y="273" width="20" height="40" as="geometry" />
        </mxCell>
        <mxCell id="Ny1s5l3Yp3x04IaPuxIG-6" value="C# Api&lt;div&gt;&lt;br&gt;&lt;/div&gt;" style="text;html=1;align=center;verticalAlign=middle;resizable=0;points=[];autosize=1;strokeColor=none;fillColor=none;" vertex="1" parent="1">
          <mxGeometry x="230" y="215" width="60" height="40" as="geometry" />
        </mxCell>
        <mxCell id="Ny1s5l3Yp3x04IaPuxIG-7" value="Postgresql&lt;div&gt;&lt;br&gt;&lt;/div&gt;" style="text;html=1;align=center;verticalAlign=middle;resizable=0;points=[];autosize=1;strokeColor=none;fillColor=none;" vertex="1" parent="1">
          <mxGeometry x="210" y="323" width="80" height="40" as="geometry" />
        </mxCell>
        <mxCell id="Ny1s5l3Yp3x04IaPuxIG-8" value="" style="fontColor=#0066CC;verticalAlign=top;verticalLabelPosition=bottom;labelPosition=center;align=center;html=1;outlineConnect=0;fillColor=#CCCCCC;strokeColor=#6881B3;gradientColor=none;gradientDirection=north;strokeWidth=2;shape=mxgraph.networks.pc;" vertex="1" parent="1">
          <mxGeometry x="290" y="50" width="100" height="70" as="geometry" />
        </mxCell>
        <mxCell id="Ny1s5l3Yp3x04IaPuxIG-9" style="edgeStyle=orthogonalEdgeStyle;rounded=0;orthogonalLoop=1;jettySize=auto;html=1;entryX=0.5;entryY=0;entryDx=0;entryDy=0;entryPerimeter=0;" edge="1" parent="1" source="Ny1s5l3Yp3x04IaPuxIG-8" target="Ny1s5l3Yp3x04IaPuxIG-2">
          <mxGeometry relative="1" as="geometry" />
        </mxCell>
        <mxCell id="Ny1s5l3Yp3x04IaPuxIG-10" value="Front end&lt;br&gt;Angular&lt;br&gt;&lt;br&gt;Exibir notas&lt;div&gt;Editar notas&lt;/div&gt;&lt;div&gt;Criar notas&lt;br&gt;Deletar notas&lt;/div&gt;&lt;div&gt;&lt;br&gt;&lt;/div&gt;" style="text;html=1;align=center;verticalAlign=middle;resizable=0;points=[];autosize=1;strokeColor=none;fillColor=none;" vertex="1" parent="1">
          <mxGeometry x="205" y="18" width="90" height="130" as="geometry" />
        </mxCell>
      </root>
    </mxGraphModel>
  </diagram>
</mxfile>
